<?xml version="1.0" standalone="no"?>
<!DOCTYPE svg PUBLIC "-//W3C//DTD SVG 20010904//EN"
 "http://www.w3.org/TR/2001/REC-SVG-20010904/DTD/svg10.dtd">
<svg version="1.0" xmlns="http://www.w3.org/2000/svg"
 width="500.000000pt" height="500.000000pt" viewBox="0 0 500.000000 500.000000"
 preserveAspectRatio="xMidYMid meet">
<metadata>
Created by potrace 1.11, written by Peter Selinger 2001-2013
</metadata>
<g transform="translate(0.000000,500.000000) scale(0.100000,-0.100000)"
fill="#000000" stroke="none">
<path d="M2310 4910 c-862 -69 -1608 -571 -1985 -1335 -218 -442 -291 -939
-209 -1425 152 -902 833 -1649 1726 -1894 249 -68 350 -81 658 -81 243 0 290
3 403 23 513 92 935 306 1296 657 545 529 794 1247 695 2005 -32 249 -103 480
-219 715 -120 243 -260 439 -450 630 -368 369 -844 609 -1363 685 -153 22
-408 31 -552 20z m260 -455 l215 -15 22 -27 c13 -16 23 -35 23 -43 0 -24 -28
-58 -61 -75 l-29 -16 0 -299 0 -300 732 0 732 0 23 -22 c22 -21 23 -26 23
-212 0 -181 -1 -191 -22 -213 l-21 -23 -604 0 c-332 0 -603 -2 -603 -5 0 -2
25 -48 56 -102 79 -136 209 -326 322 -468 116 -146 381 -412 517 -520 115 -92
312 -225 405 -274 76 -40 80 -44 80 -91 0 -29 -8 -44 -41 -75 -56 -55 -157
-177 -208 -253 l-42 -63 -47 27 c-160 92 -345 227 -509 373 l-93 82 0 -163 c0
-152 -1 -163 -22 -185 l-21 -23 -329 0 -328 0 0 -322 c0 -317 0 -322 -22 -345
-21 -23 -25 -23 -222 -23 -191 0 -201 1 -223 22 l-23 21 0 324 0 323 -333 0
-333 0 -27 28 c-27 28 -27 30 -27 171 l0 143 -60 -54 c-132 -116 -271 -224
-406 -314 -77 -52 -143 -94 -146 -94 -2 0 -35 40 -71 89 -37 49 -100 125 -142
169 -74 78 -75 81 -69 120 6 38 11 43 108 100 311 183 648 494 908 838 133
176 338 499 338 532 0 9 -142 12 -592 12 l-592 0 -28 27 -28 27 0 181 0 181
28 27 28 27 722 0 722 0 0 367 0 367 27 28 c31 33 15 32 293 13z"/>
<path d="M2740 2343 l0 -393 296 0 296 0 -80 88 c-159 174 -357 439 -476 637
l-36 60 0 -392z"/>
<path d="M2160 2586 c-110 -170 -262 -372 -388 -516 l-101 -115 286 -3 c157
-1 288 -1 290 1 2 2 2 175 1 384 l-3 379 -85 -130z"/>
</g>
</svg>
